# xmcd CD database file
#
# Track frame offsets:
#	150
#	16626
#	34846
#	52709
#	75260
#	91748
#	109591
#	126986
#	144377
#	161950
#	180393
#	198762
#	217360
#	236896
#	251818
#	269436
#	287072
#	303340
#
# Disc length: 4416 seconds
#
# Revision: 2
# Processed by: cddbd v1.5.2PL0 Copyright (c) Steve Scherf et al.
# Submitted via: CDex 1.51
#
DISCID=f4113e12
DTITLE=Various Artist - MRH-97
DYEAR=1900
DGENRE=Blues
TTITLE0=One Direction - Live While We're Young
TTITLE1=Rihanna - Diamonds
TTITLE2=JLS - Hottest Girl In The World
TTITLE3=Adle - Skyfall
TTITLE4=Robbie Williams - Candy
TTITLE5=PSY - Gangnam Style
TTITLE6=Leona Lewis FT Childish Gambino - Trouble
TTITLE7=Flo Rida - I Cry
TTITLE8=Example - Say Nothing
TTITLE9=Misha B - Do You Think Of Me
TTITLE10=David Guetta FT Sia - She Wolf (falling into pieces)
TTITLE11=Conor Maynard FT Ne-Yo - Turn Around
TTITLE12=Amelia Lily - You Bring Me Joy
TTITLE13=Paloma Faith - Never Tear Us Apart
TTITLE14=Maroon 5 - One More Night
TTITLE15=Biffy Clyro - Stingin' Belle
TTITLE16=Rita Ora - Shine Ya Light
TTITLE17=Nas FT Amy Winehouse - Cherry Wine
EXTD=
EXTT0=
EXTT1=
EXTT2=
EXTT3=
EXTT4=
EXTT5=
EXTT6=
EXTT7=
EXTT8=
EXTT9=
EXTT10=
EXTT11=
EXTT12=
EXTT13=
EXTT14=
EXTT15=
EXTT16=
EXTT17=
PLAYORDER=
